<svg width="166" height="197" viewBox="0 0 166 197" fill="none" xmlns="http://www.w3.org/2000/svg">
<path d="M38.7001 183.866C43.668 176.773 42.875 167.669 36.9288 163.531C30.9826 159.393 22.135 161.789 17.1671 168.882C12.1992 175.975 12.9922 185.079 18.9384 189.217C24.8846 193.355 33.7322 190.959 38.7001 183.866Z" fill="#D3D3D3"/>
<path d="M32.7198 179.705C34.9263 176.555 34.572 172.51 31.9286 170.67C29.2851 168.83 25.3534 169.893 23.147 173.043C20.9405 176.194 21.2948 180.239 23.9383 182.078C26.5817 183.918 30.5134 182.855 32.7198 179.705Z" fill="black"/>
<path d="M104.679 183.869C109.647 176.776 108.853 167.671 102.907 163.534C96.9611 159.396 88.1135 161.792 83.1456 168.885C78.1777 175.978 78.9707 185.082 84.9169 189.22C90.8631 193.358 99.7107 190.962 104.679 183.869Z" fill="#D3D3D3"/>
<path d="M98.6984 179.708C100.905 176.557 100.551 172.512 97.9071 170.673C95.2636 168.833 91.332 169.896 89.1255 173.046C86.9191 176.196 87.2733 180.241 89.9168 182.081C92.5603 183.92 96.4919 182.858 98.6984 179.708Z" fill="black"/>
<path d="M72.3949 139.038L76.6767 138.383L80.9584 137.587C83.8129 137.089 86.6674 136.349 89.5219 135.723C92.3764 135.097 95.131 134.3 97.8856 133.347C108.979 130.085 119.396 124.866 128.643 117.94C133.197 114.454 137.254 110.367 140.703 105.791C143.747 101.753 146.127 97.2582 147.754 92.4749H37.6272L33.7593 137.074C33.7116 137.647 33.7843 138.222 33.9726 138.765C34.161 139.308 34.4609 139.805 34.8532 140.226C35.2454 140.646 35.7214 140.98 36.2507 141.207C36.78 141.433 37.3509 141.547 37.9269 141.541C46.5617 141.541 55.1823 141.058 63.7315 140.119C66.6146 139.777 69.5262 139.521 72.3949 139.038Z" fill="#D3D3D3"/>
<path d="M154.034 92.4749H150.965C149.449 97.9832 147.002 103.194 143.729 107.882C140.249 112.891 136.106 117.409 131.412 121.312C122.078 129.15 111.073 132.977 99.7126 136.961C96.8581 138.028 94.0036 138.867 91.1491 139.806C88.2946 140.745 85.3402 141.456 82.4001 142.068L77.9899 143.078L73.5654 143.932C70.611 144.543 67.6281 144.913 64.6594 145.354C52.7704 147.09 40.5674 148.925 28.7927 148.128C27.2084 148.014 23.7973 146.378 24.5823 141.655L30.9763 91.2941C30.9763 90.9669 31.0477 90.6112 31.0905 90.2413L31.4045 87.6521C32.0468 82.5307 32.4179 76.2711 27.8935 72.7429C24.1827 69.8977 18.2453 69.7696 9.46774 72.5295C6.87577 73.2362 4.33431 74.1154 1.86051 75.1614C-0.294633 76.0861 0.989889 84.7073 6.51333 83.2277C10.5549 82.1802 14.5142 80.8393 18.3595 79.2159L17.8599 76.3707C21.6707 75.8727 23.5689 76.5414 24.3539 77.21C26.7517 79.0594 28.7641 81.5633 27.9506 85.4755C16.9322 137.459 12.9074 156.607 17.8314 156.849C135.793 161.117 153.42 107.711 156.274 95.1494C156.325 94.8235 156.306 94.4906 156.217 94.1728C156.129 93.8551 155.973 93.5598 155.761 93.3067C155.549 93.0535 155.285 92.8484 154.987 92.705C154.69 92.5615 154.364 92.4831 154.034 92.4749Z" fill="black"/>
<path d="M75.8063 126.035C59.5643 126.035 48.6886 116.46 46.7476 100.314C46.1373 94.7459 46.3876 89.118 47.4898 83.626C44.8779 83.9959 42.1947 84.3089 39.4686 84.5792C38.7586 84.6314 38.0453 84.5431 37.3697 84.3193C36.6942 84.0954 36.0697 83.7405 35.5324 83.275C34.9951 82.8095 34.5555 82.2426 34.239 81.607C33.9225 80.9714 33.7353 80.2796 33.6883 79.5715C33.5352 78.1418 33.9523 76.7094 34.8495 75.5836C35.7467 74.4577 37.052 73.7287 38.4838 73.5538C42.7656 73.1412 46.7761 72.6006 50.7153 71.932C59.2788 48.0887 79.7313 24.288 104.951 17.8719C118.438 14.5003 127.658 15.6526 132.283 21.2293C134.109 23.4344 136.721 28.3425 133.71 36.0389C128.001 50.8912 101.611 72.8425 58.8935 81.6486C57.2747 87.2539 56.7181 93.1108 57.2521 98.9193C58.608 109.76 64.8593 115.237 76.3487 114.967C119.352 114.241 130.855 76.2568 130.955 75.8727C131.136 75.1901 131.453 74.5507 131.886 73.9926C132.32 73.4345 132.862 72.969 133.48 72.6239C134.098 72.2788 134.779 72.0611 135.483 71.9838C136.187 71.9065 136.899 71.9711 137.578 72.1738C138.95 72.6423 140.086 73.6236 140.746 74.9108C141.406 76.198 141.54 77.6905 141.117 79.0736C140.989 79.5289 127.187 125.181 76.52 126.021L75.8063 126.035ZM118.381 27.0337C114.7 27.1312 111.043 27.6709 107.491 28.6413C87.1101 33.8054 71.5103 51.4461 63.4321 69.3001C99.1133 60.3375 120.108 41.8717 123.947 31.9133C124.561 30.3342 124.718 28.94 124.318 28.4705C123.919 28.0011 121.949 27.0337 118.381 27.0337Z" fill="black"/>
<mask id="mask0_70_597" style="mask-type:luminance" maskUnits="userSpaceOnUse" x="19" y="92" width="138" height="67">
<path d="M27.9361 92.4748H154.033C154.385 92.4715 154.733 92.5482 155.05 92.699C155.367 92.8499 155.646 93.0708 155.865 93.3452C156.084 93.6195 156.237 93.94 156.313 94.2822C156.389 94.6244 156.385 94.9794 156.303 95.3201C153.348 107.939 134.352 158.642 19.9863 158.642L27.9361 92.4748Z" fill="white"/>
</mask>
<g mask="url(#mask0_70_597)">
<path d="M75.8058 126.035C59.5638 126.035 48.6882 116.46 46.7471 100.314C46.1368 94.7459 46.3871 89.118 47.4893 83.626C44.8774 83.9959 42.1942 84.3089 39.4681 84.5792C38.7582 84.6314 38.0448 84.5431 37.3693 84.3193C36.6937 84.0954 36.0692 83.7405 35.5319 83.275C34.9946 82.8095 34.555 82.2426 34.2385 81.607C33.922 80.9714 33.7348 80.2796 33.6878 79.5715C33.5347 78.1418 33.9518 76.7095 34.849 75.5836C35.7462 74.4577 37.0516 73.7287 38.4833 73.5538C42.7651 73.1412 46.7756 72.6006 50.7148 71.932C59.2783 48.0887 79.7308 24.288 104.95 17.8719C118.438 14.5003 127.658 15.6526 132.282 21.2293C134.109 23.4344 136.721 28.3425 133.709 36.039C128 50.8912 101.61 72.8425 58.893 81.6486C57.2742 87.2539 56.7176 93.1108 57.2516 98.9193C58.6075 109.76 64.8589 115.237 76.3482 114.967C119.351 114.241 130.855 76.2568 130.955 75.8727C131.135 75.1901 131.452 74.5507 131.886 73.9926C132.319 73.4345 132.861 72.969 133.479 72.6239C134.097 72.2788 134.778 72.0611 135.482 71.9838C136.186 71.9065 136.899 71.9711 137.577 72.1738C138.949 72.6423 140.085 73.6236 140.746 74.9108C141.406 76.198 141.539 77.6905 141.117 79.0736C140.988 79.5289 127.187 125.181 76.5195 126.021L75.8058 126.035ZM118.381 27.0337C114.699 27.1312 111.043 27.6709 107.491 28.6413C87.1096 33.8054 71.5098 51.4461 63.4316 69.3001C99.1128 60.3375 120.108 41.8717 123.947 31.9133C124.561 30.3342 124.718 28.94 124.318 28.4705C123.918 28.0011 121.949 27.0337 118.381 27.0337Z" fill="white"/>
</g>
<path d="M160.485 92.4749C160.485 92.4749 157.63 145.482 94.0181 155.241C94.0181 155.241 134.609 160.534 154.648 139.08C174.686 117.627 160.485 92.4749 160.485 92.4749Z" fill="#D3D3D3"/>
<path d="M46.9331 66.8675C51.6571 52.1397 59.4377 38.5677 69.7691 27.0337C86.268 9.12278 116.597 7.11686 128.058 13.2484C128.058 13.2484 98.9277 -18.3056 67.2143 15.9799C50.6582 33.8766 46.9331 66.8675 46.9331 66.8675Z" fill="#D3D3D3"/>
</svg>
