<svg id="Layer_1" data-name="Layer 1" xmlns="http://www.w3.org/2000/svg" viewBox="0 0 528.46 584.34"><defs><style>.cls-1{fill:#fff;}</style></defs><polygon class="cls-1" points="184.71 65.11 163.33 121.54 10.4 121.54 10.4 65.11 184.71 65.11"/><polygon class="cls-1" points="528.46 577.29 468.12 577.29 466.15 572.1 457.46 549.18 446.74 520.86 443.45 512.19 442.93 510.79 442.93 510.77 438.28 498.53 428.82 473.54 422.09 455.76 418.8 447.08 408.11 418.87 403.48 406.62 403.48 406.6 401.04 400.19 397.43 390.65 396.94 389.39 396.94 389.38 394.14 381.97 392.37 377.29 373.3 326.97 373.3 326.96 372.76 325.54 369.47 316.86 368.67 314.7 368.67 314.69 348.11 260.43 344.82 251.76 338.49 235.04 335.94 228.31 333.93 223.01 333.84 222.8 333.84 222.79 327.26 205.38 323.45 195.33 320.16 186.65 303.68 143.14 302.05 138.84 299.04 130.87 299.29 130.22 359.13 130.22 364.02 143.13 368.67 155.38 377.76 179.4 377.78 179.41 380.51 186.65 383.8 195.33 392.37 217.97 398.83 235.04 401.04 240.87 403.48 247.3 405.16 251.76 408.45 260.43 429.82 316.86 433.11 325.54 433.64 326.94 433.64 326.96 438.28 339.2 454.48 381.97 456.16 386.4 457.46 389.84 457.46 390.65 457.76 390.65 466.15 412.78 468.46 418.86 468.46 418.87 473.09 431.11 473.09 431.13 479.14 447.08 482.43 455.76 503.27 510.77 503.81 512.19 507.08 520.86 507.9 523.03 507.9 523.04 522.58 561.76 528.46 577.29"/><polygon class="cls-1" points="457.47 65.11 457.47 365.35 442.93 326.94 442.39 325.54 439.11 316.86 438.28 314.7 417.73 260.43 414.44 251.76 408.12 235.04 403.48 222.79 401.04 216.36 401.04 121.54 242.24 121.54 262.15 68.99 263.62 65.11 457.47 65.11"/><polygon class="cls-1" points="327.26 56.43 327.26 56.37 327.23 56.43 270.84 56.43 270.83 56.4 270.83 56.43 257.63 56.43 254.34 65.11 232.96 121.54 229.67 130.22 229.42 130.87 229.42 130.89 228.56 133.16 224.77 143.14 224.77 143.16 208.3 186.65 205.72 193.46 205.01 195.33 201.54 204.49 197.03 216.4 194.61 222.79 189.96 235.04 189.96 235.06 183.65 251.76 180.36 260.43 159.8 314.7 158.98 316.86 155.69 325.54 155.16 326.96 140.61 365.38 134.33 381.97 131.94 388.27 131.03 390.65 125 406.61 125 406.62 120.35 418.87 116.67 428.61 116.67 428.62 109.67 447.08 106.38 455.76 90.19 498.52 90.19 498.54 89.66 499.92 85.54 510.77 85 512.19 81.72 520.86 75.51 537.25 66.83 560.19 60.35 577.29 0 577.29 1.71 572.78 10.4 549.85 20.56 523.03 21.38 520.86 24.66 512.19 25.19 510.77 25.19 510.76 46.03 455.76 49.31 447.08 55.14 431.71 55.14 431.69 55.36 431.11 60.01 418.86 66.83 400.87 70.69 390.65 73.98 381.97 75.51 377.93 90.17 339.2 94.82 326.94 95.36 325.54 98.64 316.86 120.01 260.43 123.3 251.76 125 247.3 125 247.28 129.63 235.04 129.63 235.03 131.94 228.95 140.61 206.06 144.67 195.33 147.96 186.65 159.8 155.38 160.04 154.76 164.44 143.13 169.32 130.22 172.62 121.54 193.99 65.11 194.61 63.48 197.03 57.08 197.28 56.43 199.26 51.21 205.72 34.14 218.65 0 309.82 0 327.26 46.06 329.21 51.21 331.18 56.43 327.26 56.43"/><path class="cls-1" d="M465.5,587.6a224.46,224.46,0,0,1-20.88,28.92c-.44.51-.87,1-1.31,1.51-2.11,2.46-4.26,4.84-6.49,7.16-.72.76-1.44,1.53-2.18,2.28q-5.11,5.25-10.55,10.12c-2.3,2-4.62,4-7,6A206.63,206.63,0,0,1,400,656.17q-5.91,3.92-12.09,7.4c-3.18,1.81-6.43,3.51-9.71,5.14q-4.31,2.13-8.69,4l-1.5.66c-2.66,1.13-5.34,2.21-8.06,3.21q-7.58,2.83-15.39,5A191.24,191.24,0,0,1,318.74,687q-2.81.38-5.64.68l-4.05.37c-1.54.12-3.09.24-4.63.32a2,2,0,0,1-.34,0c-3.05.17-6.09.27-9.17.3h-1.78a190,190,0,0,1-42.81-4.86c-.78-.17-1.56-.35-2.33-.55-2.07-.5-4.11-1-6.15-1.6l0,0h-.19l-2.36-.68c-2.93-.87-5.84-1.79-8.71-2.79q-5.5-1.9-10.86-4.13a200.08,200.08,0,0,1-29.55-15.28c-2.46-1.56-4.9-3.18-7.31-4.83v-.39l-.11.31c-2.91-2-5.75-4.09-8.56-6.24a211.49,211.49,0,0,1-24.78-22.4q-4-4.22-7.79-8.67-1.75-2.07-3.5-4.19l19.79-52.24,3.29-8.68,2.92-7.69c1.37,2.6,2.82,5.17,4.33,7.69q2.66,4.44,5.57,8.68a2.49,2.49,0,0,0,.17.24c1.66,2.41,3.37,4.76,5.16,7.06,1.15,1.5,2.31,3,3.51,4.4a157.08,157.08,0,0,0,12.5,13.38h0q4.86,4.65,10.06,8.79,3.53,2.82,7.22,5.42a144.37,144.37,0,0,0,26.64,14.83q2.87,1.21,5.78,2.3c1,.37,1.93.71,2.9,1a134.42,134.42,0,0,0,16.39,4.61c1.9.41,3.81.78,5.76,1.1l2.93.46c2.26.34,4.55.62,6.85.82a131.29,131.29,0,0,0,13.21.65q5.7,0,11.29-.47c2.92-.23,5.81-.57,8.68-1a135,135,0,0,0,22.27-5.2c.77-.24,1.55-.5,2.31-.76,1.17-.4,2.34-.81,3.49-1.25q2.34-.85,4.63-1.83a1.51,1.51,0,0,0,.37-.15h0a142.22,142.22,0,0,0,23.35-12.4c3-1.94,5.87-4,8.69-6.16a151.3,151.3,0,0,0,15.64-13.72q3.39-3.42,6.61-7.07a162.86,162.86,0,0,0,11.75-15.1q2.91-4.23,5.56-8.68A168.77,168.77,0,0,0,434.64,513c.4-1.29.77-2.61,1.12-3.93l5.34,14.11,2.21,5.82,2.44,6.42,6,16,3.3,8.68Z" transform="translate(-42.27 -104.33)"/></svg>